Simulation
nRows=36
nColumns=15
endheader
time  TH_x TH_y TH_z SC_y  SC_z  SC_x  AC_y  AC_z  AC_x  GH_y  GH_z  GH_yy  EL_x  PS_y
2.8725  0.000000  0.000000  0.000000  -36.60692771809396  0.49376215765978054  -24.63454595835763  41.02908353512128  13.280141145699352  14.795616669457841  17.43551558642075  15.729136539830668  -9.224070150021362  14.009576363376741  120.000000
2.92995  0.000000  0.000000  0.000000  -37.87231553236252  1.1384976648653113  -23.728668774146215  40.312164624732674  13.976438231212024  14.131617568885874  28.081716648315226  12.948544251799385  -15.08827777148691  14.360657651882647  120.000000
2.9874  0.000000  0.000000  0.000000  -39.24746918768769  1.6593588238726376  -22.42984777257636  39.928257822838134  14.493012549041659  13.301506528715814  41.12773435643206  10.880147154822193  -23.96639934340719  14.804690918049683  120.000000
3.0448500000000003  0.000000  0.000000  0.000000  -40.64602413607356  2.0629677822463632  -20.800665324206804  39.84101736026957  14.806604790183464  12.318778330759331  55.928727316830084  9.584980528852803  -35.31239832742529  15.297947988845667  120.000000
3.1023  0.000000  0.000000  0.000000  -41.99233151780184  2.3815828631642395  -18.919739842841338  39.99311373215111  14.899965313600285  11.2055590842757  70.74371353314831  8.999434077297884  -47.39160969983275  15.79762350281708  120.000000
3.15975  0.000000  0.000000  0.000000  -43.23182611362778  2.6488276809887665  -16.8772044439797  40.30976418364033  14.774571533105068  9.997170507285356  83.63716265766882  8.930558646926062  -58.20470877426004  16.269585210777237  120.000000
3.2172  0.000000  0.000000  0.000000  -44.326375407286605  2.8845186233944  -14.770223774566826  40.69944907961588  14.452572297249471  8.745790321442094  93.63131789848018  9.136687425643094  -66.66205079218142  16.696448771020403  120.000000
3.2746500000000003  0.000000  0.000000  0.000000  -45.245302444628756  3.1050448169211875  -12.68859463272361  41.07971867690896  13.966143785806794  7.492736212401668  100.76324825422425  9.42537910615858  -72.66814166745297  17.08025033480611  120.000000
3.3321  0.000000  0.000000  0.000000  -45.95848908939634  3.3233399758208177  -10.703676847947827  41.398048431142946  13.347890071848422  6.251977599988523  105.46484973096356  9.690494224494268  -76.53177450714635  17.434416095439605  120.000000
3.38955  0.000000  0.000000  0.000000  -46.443919896017974  3.5418323382987773  -8.867554269582948  41.627102250695444  12.618867289014291  5.034689476614639  108.16208709084833  9.894253617951694  -78.5877679872224  17.772989764946033  120.000000
3.447  0.000000  0.000000  0.000000  -46.6882844460271  3.7539322638405457  -7.218873090767944  41.76334906272545  11.79035728473068  3.862001375370406  109.17640947090547  10.040201591438814  -79.10569439316878  18.10729464693151  120.000000
3.5044500000000003  0.000000  0.000000  0.000000  -46.68515784476705  3.9463771886250782  -5.78927486827887  41.81724552800272  10.875099267460445  2.7619042938172353  108.7591022769417  10.15373976737424  -78.3229488648415  18.445486806279387  120.000000
3.5619  0.000000  0.000000  0.000000  -46.43248442631648  4.098322998701559  -4.604108152912653  41.798925474462976  9.894203580290732  1.7690069882398811  107.15201688188534  10.259673996100222  -76.49622325831496  18.792015047171873  120.000000
3.61935  0.000000  0.000000  0.000000  -45.929821409532344  4.194424748996852  -3.67061478731007  41.72684961702101  8.867048641484223  0.915611446133526  104.60011389879824  10.369991194151513  -73.9028960017336  19.150680503149573  120.000000
3.6768  0.000000  0.000000  0.000000  -45.18563443483898  4.223430747522873  -2.9641591639674685  41.6413195276711  7.798488495748438  0.22066165282933306  101.27517630995442  10.47152222660163  -70.75870683507016  19.52313460898843  120.000000
3.7342500000000003  0.000000  0.000000  0.000000  -44.22356550166464  4.177732821490721  -2.45219513315331  41.6100767822193  6.689845610159104  -0.29506377402266504  97.17704523652488  10.528494895480943  -67.11040452889061  19.90619704965699  120.000000
3.7917  0.000000  0.000000  0.000000  -43.08389665254576  4.057479230911905  -2.1112908356730555  41.715360249793925  5.547366076873522  -0.5991866556303787  92.09712745173113  10.501895554582495  -62.78426422688326  20.2959671751172  120.000000
3.84915  0.000000  0.000000  0.000000  -41.8255342156238  3.862734200702805  -1.9227548601512847  42.023112150564785  4.379903319760296  -0.6520443292492364  85.60893680274701  10.369191340256602  -57.363413106185554  20.687507398987925  120.000000
3.9066  0.000000  0.000000  0.000000  -40.51586054130246  3.586462164506142  -1.8703075392860062  42.57358392687879  3.198189046542058  -0.41938536814784594  77.06870578170613  10.159004505943843  -50.17960074476969  21.07674989351555  120.000000
3.9640500000000003  0.000000  0.000000  0.000000  -39.21570217399714  3.2202574054255138  -1.9387297092360312  43.39749071780985  2.0029274561952315  0.11853778580782619  65.75953917128965  10.006591863551055  -40.45689358299949  21.4629134052006  120.000000
4.0215  0.000000  0.000000  0.000000  -37.979904364795885  2.7396099047804254  -2.1165247964826923  44.51484753417514  0.7800039047765891  0.9676196413192801  51.43127945933176  10.19638449996085  -27.861240728651605  21.845557916253238  120.000000
4.07895  0.000000  0.000000  0.000000  -36.85952721617974  2.1014190095932683  -2.4114085638912144  45.91024133072417  -0.49396972849151  2.1483619922335935  35.30900475294993  11.118143398725607  -13.518972966710527  22.218438767878084  120.000000
4.1364  0.000000  0.000000  0.000000  -35.89223571495945  1.2776514288270862  -2.8358675844450096  47.545046159633486  -1.8652315416483551  3.6731439463684614  20.1255936629231  13.089301287523519  -0.06499102047231144  22.573041284500107  120.000000
4.19385  0.000000  0.000000  0.000000  -35.10212677195784  0.26021737538874784  -3.387366881080776  49.36840855544893  -3.377065034281501  5.482998297918986  8.054060055354926  16.17090542074487  10.399210850757457  22.88319929685354  120.000000
4.2513000000000005  0.000000  0.000000  0.000000  -34.50443704092947  -0.9124209556303715  -4.021460503241954  51.26572884129757  -5.057944282901068  7.46964488688235  -0.5731956630422905  20.158405616986833  17.590441139460996  23.11061231545072  120.000000
4.30875  0.000000  0.000000  0.000000  -34.115081953816905  -2.17668633296721  -4.634826580002037  53.09960356824875  -6.924156140859474  9.517500072741315  -6.379243463434593  24.706407181369066  22.163282297742967  23.239728850311877  120.000000
4.3662  0.000000  0.000000  0.000000  -33.92673220814301  -3.454846026044887  -5.18138368904595  54.784870980249934  -8.86045956460461  11.56278046569756  -10.041050370559768  29.429670214059612  24.79704156138943  23.274258931092387  120.000000
4.42365  0.000000  0.000000  0.000000  -33.90469083000032  -4.600356244609694  -5.65633917357858  56.285227877191815  -10.630800444378137  13.55458251360903  -12.09000938792114  33.98171609971998  25.98438088216349  23.2573379797036  120.000000
4.4811  0.000000  0.000000  0.000000  -34.01747270503897  -5.47338877310963  -6.0089157808301294  57.623686649675626  -11.99588997462174  15.389293052877221  -12.916775900149052  38.13543458205252  26.028681385045665  23.24881459171467  120.000000
4.53855  0.000000  0.000000  0.000000  -34.256738444549306  -5.988649646920025  -6.166474904162908  58.88003652680486  -12.76844897937602  16.962117670258934  -12.812223776024027  41.78260743266878  25.119810173754622  23.297483549246323  120.000000
4.596  0.000000  0.000000  0.000000  -34.68638874314453  -6.060065683833181  -6.039703285536251  60.154753018311844  -12.891771923504827  18.241224797571807  -12.012466173818918  44.9019042514832  23.408268449666046  23.440459529963306  120.000000
4.65345  0.000000  0.000000  0.000000  -35.39586888495535  -5.584527518872921  -5.524740194949203  61.518394535250785  -12.470813709090793  19.278664160466782  -10.72438182571222  47.53107704798871  21.049428694009784  23.68216037645515  120.000000
4.7109000000000005  0.000000  0.000000  0.000000  -36.43316814470744  -4.456230901511947  -4.502201601350668  62.98800353580306  -11.76471110461527  20.195576644688124  -9.14807912395801  49.73856374588152  18.20784274550398  23.975850890607294  120.000000
4.76835  0.000000  0.000000  0.000000  -37.699883860620616  -2.650132834847233  -2.841636113533708  64.5284435443893  -11.02015240189344  21.086736359713232  -7.532850968588979  51.54836002615259  15.071401743697143  24.237320507299984  120.000000
4.8258  0.000000  0.000000  0.000000  -38.955899229374445  -0.285216602008562  -0.4468613805074469  66.07665833636405  -10.30201033550553  21.924187978572917  -6.131238909763539  52.91371989753311  11.819482331738962  24.38554331100097  120.000000
4.88325  0.000000  0.000000  0.000000  -40.053869908253866  2.4593006681016587  2.7029738167790467  67.55040216228981  -9.623371146343366  22.64865379306474  -5.105378228686634  53.8221510423506  8.567398846565851  24.364964463712603  120.000000
